<svg width="32" height="32" viewBox="0 0 32 32" fill="none" xmlns="http://www.w3.org/2000/svg">
<path d="M17 24V22C17 19.2386 14.7614 17 12 17C9.23858 17 7 19.2386 7 22V24H17ZM17 24H25V23C25 20.0545 22.7614 18 20 18C18.5867 18 17.3103 18.6255 16.4009 19.6311M15 11C15 12.6568 13.6568 14 12 14C10.3432 14 9 12.6568 9 11C9 9.34315 10.3432 8 12 8C13.6568 8 15 9.34315 15 11ZM22 13C22 14.1046 21.1046 15 20 15C18.8954 15 18 14.1046 18 13C18 11.8954 18.8954 11 20 11C21.1046 11 22 11.8954 22 13Z" stroke="black" stroke-width="2" stroke-linecap="round" stroke-linejoin="round"/>
</svg>
