<svg width="32" height="32" viewBox="0 0 32 32" fill="none" xmlns="http://www.w3.org/2000/svg">
<path d="M15 8.99677H11.2C10.0799 8.99677 9.51984 8.99677 9.09202 9.21476C8.71569 9.40651 8.40973 9.71247 8.21799 10.0888C8 10.5166 8 11.0767 8 12.1968V21.7968C8 22.9169 8 23.477 8.21799 23.9048C8.40973 24.2811 8.71569 24.5871 9.09202 24.7788C9.51984 24.9968 10.0799 24.9968 11.2 24.9968H20.8C21.9201 24.9968 22.4802 24.9968 22.908 24.7788C23.2843 24.5871 23.5903 24.2811 23.782 23.9048C24 23.477 24 22.9169 24 21.7968V17.4968M19.5 10.4968L22.3284 13.3252M14.7627 15.2341L21.411 8.58579C22.192 7.80474 23.4584 7.80474 24.2394 8.58579C25.0205 9.36684 25.0205 10.6332 24.2394 11.4142L17.3774 18.2762C16.6158 19.0379 16.235 19.4187 15.8012 19.7215C15.4162 19.9904 15.0009 20.213 14.564 20.385C14.0717 20.5788 13.5438 20.6853 12.4879 20.8984L12 20.9968L12.0475 20.6646C12.2154 19.4893 12.2993 18.9016 12.4903 18.3529C12.6597 17.866 12.8912 17.4031 13.1791 16.9754C13.5034 16.4934 13.9232 16.0736 14.7627 15.2341Z" stroke="black" stroke-width="2" stroke-linecap="round" stroke-linejoin="round"/>
</svg>
